<?xml version="1.0" encoding="UTF-8"?>
<svg xmlns="http://www.w3.org/2000/svg" version="1.1" viewBox="0 0 1762 1768">
  <defs>
    <style>
      .cls-1 {
        fill: #ff3336;
      }
    </style>
  </defs>
  <!-- Generator: Adobe Illustrator 28.7.5, SVG Export Plug-In . SVG Version: 1.2.0 Build 176)  -->
  <g>
    <g id="Capa_1">
      <g>
        <path class="cls-1" d="M838.5,1.7c-27,1.6-40.7,2.7-56.5,4.4C471,39.6,203.3,235.5,75.9,522.8-2.5,699.7-20.7,903.7,25.1,1093c68.6,283.2,273.6,514.4,546.3,615.9,76.9,28.7,153.1,45.5,239.6,52.8,25.7,2.2,107,2.5,130.5.5,26.9-2.3,44.6-4.2,65.5-7.2,114.2-16.4,224.7-55.8,325.5-116.3,146.2-87.7,268.8-223.5,341.1-377.9,47.7-101.7,72.7-197.3,82.6-315.3,1.7-20.6,1.7-101.7,0-124.5-6.9-90.8-25-173.5-55.7-255.1-19.1-50.6-49-110.7-77.5-155.9-25.6-40.6-59.1-85-89.9-119-13.6-15.2-45.4-47.1-60.6-61-106.7-97.7-236-167.2-376.5-202.4-56.3-14.2-110-22.2-170-25.6-15.7-.9-74.9-1.1-87.5-.3ZM927.1,56.1c3.6,1.4,4.9,4.8,4.9,12.7-.1,9.4-1.4,15.3-4,17.4-1.9,1.5-3.8,1.6-17,1.1-21.1-.9-23.5.6-23.5,13.8s.4,7.2,2.3,9.1c2.1,2.2,3.1,2.3,14.8,2.3s12.6,0,14.9,2.7c3.1,3.6,4.1,10.6,2.7,18.7-1.7,10.1-2.6,10.6-18.5,10.6s-13.9.4-15.3,1.2c-4.7,2.7-7.1,15.5-3.8,20.2,3,4.2,7.1,5.1,23.2,5.1s18.8-.3,18.5,12.6c-.5,16.7-2.8,21-11.1,20.8-13.9-.3-35.2-2.4-39.3-3.9-5.8-2-12.4-7.5-14.9-12.5-4.1-8-4.4-11.8-3-35.7.7-12.3,1.7-22.6,2.2-22.9.4-.3.8-15.9.8-34.7,0-36.8.1-37.7,5.2-39.6,2.9-1.1,57.8-.2,60.9,1ZM797.4,60.2c1.2,2,10,68.4,15.1,115,.8,7.5,2,14.9,2.5,16.3,1.8,4.8,1.2,10.3-1.2,11.9-3.6,2.3-20.5,5.9-24.3,5.2-5.3-1-9-4.9-12-12.3-2.4-6.3-7.2-15.6-20.5-40.5-2.8-5.4-5.9-10.2-6.8-10.7-1.8-1-6.2.3-7.4,2.2-1.4,2.1-.8,9,1.2,15.4,1.1,3.5,2.9,12.7,4,20.5,1.1,7.9,2.5,16.7,3.1,19.6,1.2,6.2.1,10.2-3.4,12.1-3.7,1.9-12.5,3.1-15.1,2.1-4.8-1.8-5.5-4.4-9.1-34.1-1.9-15.6-5.5-44.6-8.1-64.4-6-45.9-5.9-44.8-4.1-46.4,1.7-1.4,18.5-5.1,23.2-5.1s9,3.2,12,9.7c5.9,12.8,29,58.3,29.6,58.3,1.3,0,3.1-13,3.1-22.5s-1.2-17.1-2.7-26.8c-3.5-21.8-3-23.6,6.5-26.1,8.4-2.2,12.7-2,14.4.6ZM1020,66.3c19.7,3.1,25.3,4.7,30.8,8.7,12.7,9.1,15.7,39.4,5.6,56.7-1.3,2.3-5.7,7.6-9.8,11.7-10.6,10.7-12,14.8-11.2,32.1.8,15.2,2.1,31.5,3.1,36.5,1.1,6.1-.9,7.5-10.3,7.4-8.8-.1-14.3-2.1-17.4-6.4-1.7-2.3-1.9-5.5-2.2-37-.3-27.2-.1-35.2,1-37.7,1.4-3.6,5.3-5.8,11.9-6.8,7.6-1.3,13.3-10.6,12.2-20.2-.6-5.8-3-9.1-8.4-11.5-7.7-3.4-14.6-1.4-15.8,4.7-.2,1.1-3.8,19.1-7.9,40-4.2,20.9-8.5,43.1-9.6,49.4-3,16.9-4.4,18.2-17,16.1-8.9-1.5-11.3-3.3-11.2-8.6,0-2.1,2.9-17.4,6.5-33.9s9.5-44.9,13.1-63.2c3.6-18.2,7.1-34.3,7.8-35.8,1.5-3.4,5.5-5.6,9.3-5.1,1.7.2,10.4,1.5,19.5,2.9ZM648.8,93.7c3.7,2.7,6.1,7.9,6.8,15.1,1,9.2.2,10-15.7,15.1-22.7,7.3-22.3,6.8-19,19.7,2.9,11.5,4.2,11.9,18.1,6.7q15.7-5.9,18.7-3.6c1.6,1.1,3.2,3.5,3.6,5.4.5,1.9,1.8,6.1,2.8,9.3,2.7,8.6,2.5,11.9-1,14.9-1.7,1.4-5.4,3-8.3,3.6-12,2.7-13.9,3.4-16.4,6.4-2.3,2.7-2.6,3.8-2.2,8.8.3,4.1,1.3,7.1,3.4,10.6,3.5,5.7,5.8,6.3,12.3,3.5,13-5.6,22.4-9.3,24.9-9.8,4.5-.9,7,2,9.7,11.5,5.1,17.3,3.2,20.5-14.3,25-4.5,1.2-16.4,5-26.3,8.6-19.4,7-20.7,7.1-22.7,1.8-.6-1.5-6.1-19.2-12.2-39.3-6.2-20.1-15-48.5-19.6-63.2s-8.4-27.8-8.4-29.2c0-5.1,2.6-6.5,28.5-15.2,27.1-9.2,31.6-9.9,37.3-5.7ZM1169.8,107.4c4.8,1.8,9.7,3.7,11,4.1,3.6,1.1,5.5,4.9,4.9,9.8-.3,2.3-4.2,29.4-8.7,60.2s-8.9,61.1-9.9,67.4c-1.1,8.2-2.1,11.7-3.2,12.4-1.9,1.2-15.2-1.5-20.1-4-5.4-2.7-6.1-8.1-2.8-23.4,3.4-15.8,2.9-19.6-3.3-24.2-8.2-6.1-18.7-7.4-24.9-3.2-4.1,2.8-11.1,12.2-15.2,20.2-2.6,5.3-6.5,8.3-10.4,8.3s-15.4-4.3-18.7-7.1c-5-4.4-4.6-6.7,2.3-14.1,6-6.5,51.9-66.3,70.6-91.9,10-13.8,14.1-17.8,18.4-17.9.7,0,5.2,1.5,10,3.4ZM521.9,143.7c2.1,1.5,14.7,24.2,13.8,24.9-.1.1-4.5,1.1-9.7,2.3-15.2,3.4-22.6,7.8-26.8,15.6-2.4,4.5-2.9,23.2-.8,31.6,3.6,14.2,15.3,32.3,25.6,39.4,3.7,2.5,5.3,3,10.4,3s6.9-.5,11.4-3.4c2.9-1.8,5.5-4.3,5.8-5.5.4-1.9-1.4-7.4-4.9-14.5-1.4-2.8-6.3-5.1-10.9-5.1s-7.2-2-8.9-5.2c-.6-1.1-2.4-5.7-3.9-10.1-3.4-9.7-3-10.9,4.3-14.3,2.9-1.4,7.4-3.9,10.1-5.7,3.7-2.4,6.1-3.2,9.4-3.2s4.8.5,8.1,4.1c2,2.3,4.2,5.9,5,8,2.3,6.6,11.8,26.2,19.1,39.4,8.2,15,8.7,16.6,6.4,21.5-3.6,7.6-23.1,21-36.3,24.9-11.7,3.4-25.4,1.1-36.7-6.2-15.7-10.2-34.4-37.5-41.7-60.7-3.6-11.3-4.9-19.6-5-30-.1-16.2,4.6-28.8,14.2-38.3,6.8-6.8,13.4-10.6,23.3-13.2,8.4-2.3,14.9-2,18.7.7ZM1279.4,158c9.4,5.1,11.1,7,10.2,11.1-.3,1.8-4.4,9.1-8.9,16.3-4.6,7.2-11.7,18.5-15.7,25.1s-12,19.3-17.7,28.3c-5.8,8.9-10.9,17.8-11.4,19.8-1.7,5.8,1.2,10.1,10.2,14.9,10.3,5.6,12.8,7.4,14.5,10.6,1.9,3.8,1.8,7.3-.5,11.8-2.6,5.1-12.9,14.4-15.2,13.8-1.9-.5-42.7-24.1-49.4-28.6-2.2-1.5-4.1-3.4-4.3-4.2-.1-.8.9-3.3,2.4-5.5,3.5-5.2,54.1-86.7,62.9-101.4,7.7-12.8,10.4-16,13.5-16s5.4,1.8,9.4,4ZM348.3,257.2c1.4,1.3,9.6,10.4,18.3,20.3s29,32.7,45.1,50.8c16.1,18,29.3,33.2,29.3,33.7s-2.4,3.4-5.2,6.3c-2.9,2.9-7,7.2-9.1,9.5-5.9,6.6-8.5,6.2-28.7-4.8-18.5-10.1-32.9-16.1-44-18.4-4.1-.8-7.5-1.4-7.6-1.3s6.5,7.4,14.7,16.2q30.9,33.1,30.9,37.1c0,3.1-.8,4.5-5.3,9.1-5.8,5.7-8.5,6.5-12.4,3.8s-19.2-20.6-40-43.8c-20.7-23.2-41.4-45.9-46-50.5s-8.3-9.1-8.3-10.3,1.7-3.7,3.8-5.8,5.5-5.9,7.6-8.5c4.4-5.4,9.2-8,13.4-7,1.5.4,6.8,3,11.7,5.8,20.4,11.5,56,30.4,56.7,29.9.5-.2.8-2,.8-3.9,0-3-1.6-5.2-12.2-17.2-6.7-7.5-16.6-18.2-21.9-23.7-5.4-5.5-10.3-11.3-10.8-12.8-1.5-3.8.8-8.6,6.2-13.2,4.9-4.2,9.4-4.6,13-1.3ZM941,259.4c31.8,3.5,63.9,9,90.2,15.6,175.8,44.1,323.5,162.6,404.9,325,35.8,71.5,56.3,143.7,64.6,227,2.5,24.6,2.4,91.4,0,115-10.8,103.6-42.1,194.2-96.7,279.8-36.3,56.9-88.7,114.1-143.5,156.7-80.7,62.8-176.6,104.7-277.5,121.4-40.2,6.6-67.9,8.5-113,7.8-53.5-.9-91.1-5.7-141.8-18.2-162.6-40.2-302.5-145-388.2-291-10.5-17.9-29-55.4-37.6-76-8.9-21.7-21.3-58.8-27.3-82.5-20.8-81.6-25-166.4-12.5-251.5,15.1-102,56.6-201.1,119.1-284,34.1-45.3,77.5-88.7,122.8-122.8,32.2-24.3,62.1-42.6,99.7-61.2,71.7-35.4,146.5-55.8,229.8-62.5,17.3-1.4,90.3-.4,107,1.4ZM1427.7,263.1c6.8,5.7,11.3,11.1,11.3,13.4s-4.7,6.7-12.6,14.5c-15,14.8-18.4,19.6-18.4,25.7s1.9,9.2,6.1,12.7c4,3.4,10.2,6.6,12.7,6.6s8.6-6.6,18.5-16.5c15.3-15.2,16.9-16.5,20.2-16.5s4.6.9,8.6,4.7c6.1,5.7,8.3,9.6,7.4,13.1-.8,3.4-95.8,98-99.1,98.8-4.1,1.1-7.4-.5-13.5-6.4-9.2-9-9.2-9.1,9.4-27.5,17.7-17.4,20.8-22.2,18.8-28.7-2-6.8-15.2-16.9-20.3-15.7-1.3.4-9.3,7.7-17.8,16.4s-16.6,16.6-18,17.5c-5.4,3.8-11.8,1.6-18-6.3-7.1-9-8.9-6.3,33.3-47.7,20.4-20.1,42.8-42.3,49.7-49.3,8-8.1,13.3-12.7,14.7-12.8,1.2-.1,4.3,1.7,7,4ZM257.1,387.1c35.3,9.8,73.1,45.7,77.9,74.1,3.8,22.2-10.6,44.4-32.4,50.3-23.8,6.4-64.3-10.6-85.8-36-7.4-8.8-15.8-22.3-18.9-30.3-3.3-8.7-3.7-21.9-1-30,8.5-25.1,31.8-36,60.2-28.1ZM1539,391.9c12.1,4.9,21.4,14.9,25.1,27.4,2.8,9,2.3,23.4-1,31.9-11.1,28.7-57.1,60.8-89.6,62.6-16.2.8-28-3.4-37.7-13.6-13.4-14-16.3-31.9-8-49.6,9.3-19.8,26.6-37.9,46.2-48.5,21.7-11.6,50.2-16.1,65-10.2ZM1612.1,515.1c10.3,3.1,21,18.1,21.7,30.3.4,8.2-1.7,11.5-9.5,15-3.2,1.4-8.4,4-11.5,5.6l-5.7,3-1.5-2.2c-.9-1.2-1.6-4.2-1.6-6.6,0-9.1-5-15.2-12.6-15.2s-8.6,2.9-19.7,21.9c-11.9,20.1-19.6,28.5-31.1,34.1-9.4,4.4-16,6-25.5,6-14.3,0-22.9-6.2-30.3-21.6-6.6-13.7-5.7-19.2,4.3-25.9,5.3-3.6,21.7-11.1,22.5-10.3.3.4.9,5.4,1.3,11.3.7,9.6,1,10.9,3.3,13.2,1.9,1.8,4,2.7,7.5,3,4.2.5,5.3.2,8.1-2.2,1.8-1.5,7-9.1,11.7-17,15.9-26.9,26.5-37,43.5-41.9,10-2.8,16.9-2.9,25.1-.5ZM183.7,521.9c25.9,5,46.6,16.2,65.3,35.3,18,18.3,21.4,36.1,11,56.9-10.3,20.2-28.8,27.3-59,22.4-25.5-4.2-48.3-16.4-66.2-35.3-17.6-18.8-21.2-37.2-11.1-57.8,9.1-18.7,32.1-26.9,60-21.5ZM1659.7,615.6c1.2.7,2.7,3.1,3.2,5.1.6,2.1,2.3,8.3,3.8,13.8,2.3,8.1,2.8,12,2.8,21,0,12.9-1.8,18.2-8.8,25.3-9,9.3-22.1,13.4-43.7,13.5-18.7.2-21.7-1-31.3-12-8.7-9.9-8.7-11.1-.2-18.1,7.6-6.2,12.5-8.5,16.1-7.6,1.5.4,5.4,3.1,8.8,6.1,6,5.5,6.1,5.5,11.6,5.1,7.5-.5,14.7-4.1,16.7-8.3,2-4.3.8-10.1-2.8-12.8l-2.6-1.9-31.9,8.7c-17.6,4.8-40,11.1-49.9,14.1s-19.6,5.4-21.6,5.4c-4.7,0-8.2-3.9-10.4-11.5-2.6-8.7-.5-12.1,8.5-14,5.1-1.1,71.7-19.5,97.5-27,12.1-3.5,23.1-6.5,24.5-6.8,3.3-.6,7,.1,9.7,1.9ZM106,657.6c14.3,4.9,14.2,4.9,9.4,12.6-3.7,6-3.9,6.7-3.9,14.4s.3,8.6,3,13c5.8,9.3,20.4,18.7,34.3,22,9.2,2.3,26.4,2.2,31.7,0,8.7-3.7,12.3-10.3,15.1-27.4.8-5.3,1.6-9.8,1.7-9.9s2.7.5,5.7,1.3c3,.7,8.1,1.9,11.3,2.5,10.8,2,14.4,7.9,13.4,21.9-1.1,16.2-9.4,28-24.9,35.9-9.6,4.8-16,6.1-32.3,6.1-30.8,0-58.9-10.6-78.8-29.8-7.5-7.3-11.7-13.8-14.1-22.1-5.4-18.2,3.7-44.1,15.4-44.1s7.2,1.6,13,3.6ZM1689.3,733c2.1,1.7,2.7,3.4,3.7,10.4,1.3,9.3.9,12.1-2.2,13.7-1.1.6-18.7,3.5-39.1,6.5-20.3,2.9-50.6,7.4-67.2,10-17.8,2.8-31.3,4.4-32.9,4-3.2-.8-3.9-2.5-6-13.9-1.7-9.2-1.3-11.8,2.1-13.1.9-.4,30.5-4.7,65.8-9.7,35.2-4.9,64.5-9.1,65-9.3,2.8-1.2,8.5-.4,10.8,1.4ZM90.4,785.9c2,1.7,2.1,7.4.1,13.1-4.7,13.2,2,25.4,17.9,32.9,18.7,8.8,46.6,8.3,57.9-1,7.7-6.4,10.5-17.1,7.1-28.1-1.8-5.9-1.8-6.1.2-7.5,2.9-2.2,24-1.5,27.8,1,4.6,3.1,6.6,8.8,6.6,19.8,0,25-13,40.8-39,47.2-10.8,2.7-28.3,3.9-40.1,2.8-12.4-1.2-17.5-2.2-28.4-5.8-29.9-9.7-45.4-27.4-45.5-52,0-14.2,3.8-22.7,10.8-24.1,5.2-1.1,22.7.1,24.6,1.7ZM1699.5,808c1.7,1.8,2.1,4.4,3.2,21.8.6,10.8,1.2,25.6,1.2,32.7.1,11.6-.1,13.6-2.1,17.5-1.8,3.4-3.5,5.1-7.2,6.9-4.5,2.2-5.2,2.3-10.9,1.3-3.4-.7-7.3-2-8.7-3-2.3-1.8-2.5-2.6-2.8-10.9-.2-8.2-.5-9.2-2.8-11.4-2.9-2.7-2.3-2.7-74-1.3l-34.1.6-2.6-2.3c-3.5-3.1-5.3-11.9-3.7-17.9,2.2-8.1-3.7-7.6,99.7-8.9,8.2-.1,9.5-.4,12-2.5,2.7-2.3,2.8-2.7,2.5-10.6-.4-12.9-.3-13,12.3-14.1,10.5-.9,15.6-.3,18,2.1ZM199.9,907.8c2.9,11,2.8,16.5-.5,19.1-2.5,1.9-12,5.4-24.1,8.7-7.4,2-10.9,4.9-11.8,9.7-1,4.9,1.1,16.4,3.8,21.1,3.2,5.7,7.4,7.4,20.4,8.5,13.5,1.1,18.2,3.2,21.3,9.6,3.4,7,2.5,20.3-1.5,21.9-1,.3-27.4-4.6-58.9-10.9-31.4-6.4-61-12-65.8-12.4-13.2-1.2-19.7-5.8-24.9-17.6-2.8-6.3-2.9-16.7-.2-20.3s12.6-5.7,70.3-23.7c37.7-11.7,68.8-21.3,69.1-21.4.4-.1,1.6,3.4,2.8,7.7ZM1589.4,922.9c14.4,6.6,43.9,19.9,65.6,29.6,46.3,20.6,46.8,21,43.9,30.5-.6,1.9-1.4,6.6-1.9,10.3-.8,7.1-2.6,10.2-6.7,11.8-1.1.4-11.3,1.5-22.5,2.4-11.1.9-38.3,3.1-60.3,5s-43.2,3.7-47.2,4c-3.9.2-7.8.8-8.7,1.1-1,.4-2.5-.1-3.6-1.1-2.9-2.6-2.9-18.5,0-23.2,2.2-3.6,3.1-3.9,15-4.8,20.3-1.4,23.9-2,26.1-4.1,2.6-2.6,3.8-8,3.9-16.7,0-11.6-3.4-16-15-19.3-19.4-5.5-25.6-12-23-24.1,2-9,4.1-13.3,6.8-13.3s13.2,5.4,27.6,11.9ZM219.4,1038.7c2.9,6,4.3,13.5,3.2,17.7-.8,3.3-6,9.3-9.7,11.2-1.6.8-6.1,2.6-10.1,4-4,1.5-14.9,6.9-24.1,12.1-10.2,5.8-18.4,9.7-20.8,10-5.4.8-9.4-1.2-13.5-6.6-6.2-8.1-10.4-8.9-20.3-4-7.8,3.9-10.4,7.6-9.7,13.6.9,6.8,3.7,11.7,6.8,12.1,2.7.3,43.2-9.9,82.6-20.9,11.7-3.2,22.1-5.9,23-5.9,3.1,0,6.1,3,7.3,7.3.6,2.3,1.8,6.3,2.6,8.9,1.7,5.5.8,8-3.4,9.6-1.5.6-15.4,4.3-30.8,8.2s-44.2,11.4-64.1,16.6c-19.8,5.2-37.4,9.4-39.1,9.4-5.3,0-7.4-2.7-8.3-10.5-.4-3.9-1.4-8.7-2.3-10.8-3.5-8.2-7.7-25.2-7.7-30.9s2-12.1,7.8-18.2c14.1-14.6,34.8-20.5,51-14.5,13.9,5.2,22.7,5.5,32.4,1.1,2.4-1.1,13.1-7.2,23.8-13.6s19.7-11.6,20-11.6,1.8,2.5,3.4,5.7ZM1556.1,1049.9c3,1.1,10.1,4.1,15.9,6.9,10.4,4.9,50.5,18.7,81.8,28.1,21.9,6.6,23.4,8.1,20.6,20.4-1.7,7.5-5.4,12.7-9.1,12.7s-23.8-7.4-50.7-16.5-49.7-16.5-50.8-16.5-3.2,1.3-4.8,2.8c-2.2,2.2-3,4.1-3.5,8.8-1.1,10.2-3.2,16-6.7,18.9-2.8,2.4-3.9,2.7-8.3,2.3-6.2-.5-17.9-5.8-19.5-8.8-.7-1.2-1-3.6-.7-5.4.6-3.7,5.8-24.9,8.8-35.6,5-18.1,12.5-23.2,27-18.1ZM256.9,1249.3c7.6,3.8,8.6,12.5,2.7,21.2-7.6,11-22.5,19.5-35.6,20.3-9.2.5-13.4-1.2-15.6-6.3-1.9-4.7-1.8-7.2.9-13,4.1-8.6,16.5-18.4,28.2-22.1,5.2-1.6,16.3-1.7,19.4-.1ZM1523.1,1250c8,2.7,12.3,5.6,19,12.7,6.7,7,9.2,11.4,9.2,16.3,0,7.8-5.2,12-14.9,12-15.8,0-31.3-9.6-39.1-24.3-3.5-6.4-3.1-10.2,1.6-14.8,3.8-3.8,4-3.9,11-3.9s9.4.7,13.2,2ZM1414.3,1331.7c4.2,8.7,10.5,22.5,14.1,30.7,13.6,30.9,27.4,50.8,46.5,67,9.8,8.3,11.6,11.4,9.6,16.2-1.8,4.4-10.6,13.3-13.9,14-2.6.6-3.4,0-9-6.2-12.8-14.4-24-24.6-34.4-31.5-10.9-7.3-65.4-34.8-72.9-36.8-2.2-.6-4.8-2-5.7-3-2-2.2-2-2,4.1-12.4,6.9-11.8,11.5-12.3,26.4-3.3,5.2,3.1,11.3,7.1,13.6,8.8,4.8,3.5,8.7,3.3,10.5-.7,1.5-3.3.6-6.1-5.1-14.6-12.6-19.2-11.9-29.7,2.9-40.5,2.5-1.8,4.8-3.4,5.1-3.4s4,7.1,8.2,15.7ZM370.9,1331.9c4.6,3.5,17,17.8,23.6,27.1,11.2,15.9,11.8,20.1,5.4,33-8.4,16.7-25.6,30-40.6,31.5-15.8,1.5-22.8,6.7-31.8,23.6-2.7,5.1-6.5,11.3-8.4,13.8s-4.4,6.8-5.6,9.6c-4.2,9.5-7,9.5-17.3,0l-6.7-6.3v-5.5c0-5,.5-6.2,5.4-13.4,14-20.1,22.2-31.4,29.6-40.2,9.2-11,11.3-11.9,17.5-7.6,8,5.5,14.2,4.2,22.9-5,6.4-6.7,6.8-10.6,1.9-17.9-5.5-8.4-9.2-8.5-17.8-.5-3,2.8-11.1,10.2-18,16.4-11.7,10.5-16.7,16-23.9,26.2-1.7,2.3-5.6,6.3-8.8,9-7.8,6.5-25.8,17.5-27.9,17.1-1-.2-3.9-3-6.6-6.3-7.4-9.2-8-10.3-7.4-12.3.6-1.9,101-92.7,104.9-94.9,2.7-1.5,5.1-.8,9.6,2.6ZM1340.7,1396c1.8,2.5,5.3,6.9,7.8,9.8,2.5,3,4.5,6.4,4.5,7.6,0,2.4-2.5,5-7.5,8-5.7,3.5-8.5,6.8-8.5,10.1s1.2,4.9,2.8,7.2c3.8,5.8,34.2,45.9,47.8,62.9,6.1,7.8,11.7,15,12.3,16.2,2.2,4.1,1.3,6.4-4.6,12-7.8,7.2-10.6,8.6-13.7,7-2.1-1.1-62-80.2-63.3-83.6-.3-.7-1.9-2-3.5-2.8-3.4-1.7-3.2-1.8-11.5,5.8-7.4,6.8-9.9,6.6-17.6-1.2-6.7-6.9-10.2-13.7-9.2-17.9.7-3.3,4.8-7.4,13.1-12.9,7.9-5.2,18.3-13.6,30.9-24.6,8.9-7.8,10.3-8.7,13.4-8.4,2.8.2,4.1,1.2,6.8,4.8ZM472.6,1426.9c13.1,9.3,13.7,10,13.1,14.5-.3,2.5-11.4,27.2-28.2,62.6-15.2,32.2-28.3,60.6-29.1,63.1-2.3,7.5-3.5,7.9-11.1,3.9-8.8-4.7-14.3-9.8-14.3-13.5s3.5-9.8,8-18.5l7.9-15.7-1.7-3.2c-1.9-3.6-18.6-16.1-21.5-16.1s-2.8.5-4,1.1c-2.2,1.3-18.1,13.4-23.5,18.1-3.9,3.4-7.7,3.6-13.3.8-6.9-3.6-11.9-8.8-11.9-12.4s4.7-8.6,25.5-23.1c19.1-13.3,48.7-35.1,70.7-52.2,8.1-6.2,16-12,17.5-12.8,5-2.6,8.5-1.9,15.9,3.4ZM1255.4,1456.7c7.6,11.5,70.6,118.9,70.6,120.3,0,3.8-18,15.8-21.8,14.5-1-.3-2.9-2.4-4.2-4.8-3.7-6.5-49.7-84.4-59.3-100.3-4.6-7.8-8.8-15.1-9.2-16.3-1.2-4,.3-7,4.8-9.2,2.3-1.2,5.7-3.5,7.5-5,4.8-4.2,8.5-3.9,11.6.8ZM1206.1,1487.7c1.8,1.8,4,6.2,6,11.8,4.8,14.1,4.8,14.2.3,15.4-2.2.6-5,1.1-6.4,1.1-3.6,0-12.4,5.4-15.5,9.4-7.2,9.5-7.2,24.7.2,43.7,5.1,13.1,14.3,24.8,22.8,28.9,8.2,4,16,2.1,30.1-7.4l6.8-4.6,1.3,2.3c.7,1.2,1.2,3.1,1.3,4.2,0,1.1,1.8,5.8,4,10.5s4,9.4,4,10.5c0,7.8-17.7,19.4-32.4,21.1-12,1.4-27.1-4.9-37.7-15.9-12.9-13.3-24.1-31.3-29.3-46.9-7.9-23.6-8.5-48-1.4-62.7,3.1-6.6,12.3-15.8,19.1-19.2,12.7-6.5,21.9-7.2,26.8-2.2ZM576.5,1487.9c7.3,3.2,12.3,6.9,16.1,12,4.5,5.9,4.4,9.1-.8,19.4-2.3,4.5-4.6,10.3-5.2,12.9l-1.1,4.6-7-5.9c-17.9-15.3-29.8-14.8-46.5,2.1-13.1,13.1-19.2,26.8-19.4,42.9-.1,14.6,3.6,18.9,21.3,24.7,5.2,1.8,9.7,3.6,9.8,4.1.2.6-1.2,3.2-3.1,6-1.8,2.7-4.5,7.2-5.9,10-3.2,6.1-7.9,10.3-11.7,10.3s-15.8-4-22.2-8.3c-18.6-12.5-23.7-35.8-14.1-65.2,11.1-34.2,37-64.1,61.6-71,7.7-2.2,21.8-1.5,28.2,1.4ZM671.5,1527.5c9.7,2.5,15.6,6.4,18.4,11.8,3,6,2.4,10.9-2.7,20.9-3.4,6.6-4,7.3-7,7.6-2.3.2-4.7-.5-8-2.6-12.6-7.9-22.3-6.3-33.4,5.6-15.5,16.5-23.8,42.7-17.9,55.8,3.7,8.1,12.9,14.5,26.2,18,3.5,1,6.8,2.1,7.3,2.5.5.5-.2,3.3-1.7,6.6-1.4,3.2-2.9,7.1-3.3,8.8-2.9,12.5-9.7,15.6-25.3,12-16.5-3.9-27.9-16.1-32.8-34.8-2.8-10.9-.5-33.8,5.2-51.2,7.5-22.8,25-47.8,39.3-56.2,10.7-6.3,23.3-8,35.7-4.8ZM1065.4,1542.2c1.3,2.1,6.6,30.8,18.6,101.3,2.2,13.2,4.8,27.3,5.7,31.2,1.6,6.9,1.6,7.3-.2,9.3-1,1.1-2.6,2-3.7,2s-5.1,1.1-9,2.5c-14,4.9-15.9,3.8-27.3-16.9-4.3-7.6-10.9-19.1-14.7-25.4s-8.2-14-9.7-17.1c-1.6-3.1-3.7-6.3-4.7-7.2-2.4-2.1-6.4-3.4-6.4-2s2.7,14.1,6,30.3c8.8,42.5,8.6,40.8,6.9,44.3-1.9,3.9-6.7,6.5-13.2,7.2-6.7.7-9.1-1.2-10.2-7.8s-5.6-32.1-11.6-65.9c-6.1-33.8-11.3-63-11.6-64.8-.7-4.1,1.6-6.9,6.6-7.8,2-.4,6-1.5,9-2.5,8.5-3,11.7-2.6,16,1.9,2,2.1,10.8,17.1,20.1,33.9,9,16.6,16.8,29.9,17.2,29.7.5-.3.8-6.9.8-14.7,0-14.6-1.6-27.2-5-40.9-3.6-14-2.4-17.9,6.5-21.2,6.3-2.3,12.2-2,13.9.6ZM775.3,1552.5c8.5,2.2,14.7,5.7,19.9,11.3,8,8.6,11.5,17.5,14.2,36.2,1.7,11.7,1.2,19.8-2.4,39.1-7.1,37.4-26.7,62.6-50.5,64.5-11.9,1-24.4-2.5-33-9.3-20-15.7-24.4-64-9.1-99.4,15.1-35.1,35.2-49.1,60.9-42.4ZM907.2,1560.1c13.2,2.8,23.7,11.8,31.1,26.5,9,18,12,30.4,12,49.4s-3,32-11.8,50.7c-5.4,11.4-12.3,19.1-20.9,23.3-20.7,10.1-46.2,1.4-58.3-20-4.6-8.1-9-22.1-10.4-33.4-1.7-14-.7-39.6,2.1-50.6,7.9-31.9,31.4-51.1,56.2-45.9Z"/>
        <path class="cls-1" d="M1147.1,154.9c-9.6,13.1-11.1,15.5-10.4,18.1.6,2.2,5.7,4.8,10.3,5.2,2.7.2,3.6-.2,4.6-2.2,2-4.1,4.6-20.1,4.2-26.5l-.3-6-8.4,11.4Z"/>
        <path class="cls-1" d="M756.4,407c-1.2.4-3.1,2.1-4.3,3.6l-2.1,2.7v117.3c0,69.3-.4,118.3-.9,119.7-2.2,5.7-4.7,4.9-33.1-11.8-12.4-7.3-50.8-29.7-85.5-49.7-34.6-20.1-68.8-40-76-44.2-20.4-12-22.6-11.7-32.1,4.5-3.3,5.7-20,34.9-37.1,64.9s-41.4,72.4-54.1,94.3-23.6,41.3-24.2,43.1c-1.2,3.7-.3,7.2,2.6,9.7,1.1.9,12,7.4,24.4,14.4,36.8,20.9,179.2,103.2,183.3,106.1,1.7,1.1,1.4,1.5-3.6,4.7-7.2,4.6-116.8,68.4-164.2,95.6-20.3,11.7-38.2,22.6-39.7,24.2-1.9,1.9-2.8,4-2.8,6.2,0,3.7.1,4,35.7,64.7,14.3,24.5,39,67.2,54.8,94.9,15.9,27.8,30.1,51.9,31.7,53.7,3.8,4.3,7.5,5.1,13.1,2.6,2.4-1.1,17.3-9.6,33.3-18.9,26.1-15.4,88.9-51.8,145.2-84.2,23.4-13.6,26.9-14.7,28.4-9.6.4,1.6.8,55.3.7,119.2,0,126.7-.3,120.4,5.6,123.1,3.9,1.8,243.9,1.7,247.5-.1s3.3-2.8,4.3-4.7c1.6-3.3,1.7-10.6,1.7-121.2-.1-112.7.1-121.8,2.6-121.8s96,54,175.4,100.4c15.7,9.2,30.2,17.2,32.3,17.8,5.4,1.6,9.7-.7,14.1-7.4,1.8-2.9,13.6-23.5,26.2-45.8,19.5-34.7,51.6-90.7,82.3-143.5,9.8-16.8,10.7-19.6,8.3-24.5-1.9-3.9-1.8-3.8-39.2-25-39.1-22.2-168.8-97.5-170.3-98.9-.4-.4,1.7-2.4,4.7-4.4,6.4-4.3,108.3-63.7,162.5-94.8,20.5-11.8,38.6-22.6,40.2-24.1,2.4-2.1,2.9-3.4,2.9-7s-1.4-6.8-9.6-20.9c-35.1-59.9-60.9-104.5-79.9-137.9-35.4-62.4-32.7-58.6-41.5-57.8-4.1.4-11.1,4.2-46.6,25-23.1,13.5-66.5,38.8-96.6,56.2-30,17.3-56.3,32.7-58.3,34.1-3.9,2.6-5.2,2.9-7.9,1.9-1.4-.6-1.6-11.9-1.6-118.8s-.1-118.3-1.8-121.6c-1-2-3.2-4.2-5.2-5.2-3.3-1.7-11.2-1.8-123.5-1.7-66,0-121,.4-122.1.9Z"/>
        <path class="cls-1" d="M240.3,416c-9.5,2.2-13.6,7.9-13.1,18.6.3,5.9.9,7.9,3.8,12.8,7.4,12.2,25.2,26.7,39.4,32.1,12.2,4.6,23.3,2.7,29.2-5.1,2.6-3.3,2.9-4.6,2.9-10.8s-.5-8-3-12.4c-7.9-14.5-28.7-30.4-45.2-34.7-6.2-1.6-9-1.7-14-.5Z"/>
        <path class="cls-1" d="M1509.2,420.1c-20,3.4-37,14.1-46.6,29.2-9.6,14.9-8.7,25.2,2.4,30.9,9.1,4.7,22.3,3.2,37-4.2,20-10.1,35.4-31.2,32-43.9-2.7-10.1-11.5-14.3-24.8-12Z"/>
        <path class="cls-1" d="M165.1,550.1c-5.6,1.1-10.8,5.1-13.2,10.3s-2.3,9,.1,14.4c9.4,20.7,45.8,38.1,67.2,32.2,7.3-2.1,13.8-10.2,13.8-17.5s-13.6-24.1-31.9-32.9c-11.1-5.3-27-8.2-36-6.5Z"/>
        <path class="cls-1" d="M110.8,953.3c-7.6,2.2-13.8,4.4-13.8,4.7,0,1.6,8.4,4.4,16.5,5.6,5,.7,10.9,1.6,13.2,2,4,.6,4.3.5,5.4-2.2.9-2.2.8-4.2-.2-8.4-1.3-5.1-1.6-5.5-4.4-5.7-1.6-.1-9.2,1.7-16.7,4Z"/>
        <path class="cls-1" d="M1625.6,970.2c-1,1.4-1.6,4.4-1.6,8s.4,5.9,2,6.8c2.8,1.5,30-.4,31.1-2.2.4-.7.5-1.6.1-2-1-1-27.9-12.8-29.2-12.8s-1.6,1-2.4,2.2Z"/>
        <path class="cls-1" d="M435.9,1468.5c-6.2,4.8-11.8,9.3-12.2,10.2-1.4,2.3.7,5.9,5.3,8.9,6.1,4,7.4,3,14.8-12,9.3-19,8.7-19.5-7.9-7.1Z"/>
        <path class="cls-1" d="M756.3,1585.1c-4.8,1.4-9.3,6.5-14.1,15.5-6.5,12.5-8.6,21.5-8.6,36.9-.1,14.4,1.4,21,6.2,26.7s14.6,7.6,21.9,4.2c6.6-3.2,14.2-15.9,18.4-30.9,1.8-6.4,2.3-10.7,2.3-21,.1-17.6-2.5-25.3-10.1-29.7-3.8-2.3-11.6-3.1-16-1.7Z"/>
        <path class="cls-1" d="M890.5,1594.9c-4.4,2.6-6.1,4.9-9.4,12.1-4.9,11.1-6.4,19.3-5.9,33.2.4,9.9,1,13.8,3.2,20.2,4.8,13.9,10.4,19.6,19.5,19.6,15.4,0,24-16.6,24.1-46,0-18.8-6.5-34.5-16.2-39.6-3.9-2-11.7-1.8-15.3.5Z"/>
      </g>
    </g>
  </g>
</svg>